<svg width="118" height="32" viewBox="0 0 118 32" fill="none" xmlns="http://www.w3.org/2000/svg">
<g clip-path="url(#clip0_5041_323)">
<path d="M5.23568 0.114708C4.80232 0.264943 4.3878 0.579497 4.14285 0.950389C3.73304 1.56307 3.76601 0.586539 3.76601 12.3424L3.77072 22.9105L4.7034 23.4457C5.21448 23.7438 5.65256 23.9879 5.66904 23.9879C5.69024 23.9879 5.70673 19.0678 5.70673 13.0537C5.70673 2.52785 5.71144 2.10767 5.80565 2.02551C5.96109 1.88231 6.06001 1.91048 6.62056 2.23443C6.90318 2.40109 7.14813 2.53959 7.16461 2.53959C7.23763 2.53959 9.03938 1.45508 9.03938 1.40579C9.05116 1.32832 6.99739 0.173394 6.68179 0.0794969C6.28847 -0.0425688 5.63842 -0.0261369 5.23332 0.112361L5.23568 0.114708Z" fill="#FA5300"/>
<path d="M13.5284 0.164275C13.1562 0.258172 12.8289 0.434228 9.81181 2.17132L6.79005 3.90606L6.77356 14.8286L6.76179 25.7511L5.77495 25.1807C5.23795 24.8708 4.32648 24.3403 3.75651 24.0093L2.71314 23.4061V14.8497C2.71314 10.1455 2.69666 6.29808 2.68017 6.29808C2.59067 6.29808 1.01031 7.23235 0.810117 7.40371C0.499226 7.66897 0.195401 8.16193 0.0847051 8.57507C-8.3253e-05 8.89902 -0.00950418 9.5516 0.00698244 16.1173L0.0234691 23.3028L0.228374 23.7183C0.534554 24.3262 0.84309 24.5962 2.10314 25.3333C6.05286 27.6338 7.07739 28.2183 7.18337 28.2183C7.24932 28.2183 8.84146 27.3333 10.7162 26.2558L14.1337 24.2934L14.1502 20.561C14.1666 17.0281 14.1713 16.8192 14.2726 16.5821C14.461 16.1408 14.7602 15.7417 15.0828 15.5093C15.2548 15.3826 16.7197 14.5258 18.3448 13.5962C19.9652 12.6666 21.2889 11.8826 21.2959 11.8497C21.2959 11.8122 21.2582 11.7723 21.2135 11.7511C21.124 11.7183 9.41613 5.0023 9.25127 4.89667C9.17354 4.84033 9.47266 4.64784 11.1095 3.70183C12.1859 3.07742 13.1115 2.56803 13.1727 2.57507C13.234 2.57507 16.0014 4.14549 19.3175 6.06334L25.3516 9.5516L25.5848 9.4178C26.256 9.03751 27.0662 9.49996 27.0662 10.2629V10.5328L27.6103 10.8474C27.9165 11.0187 28.1756 11.1619 28.192 11.1619C28.258 11.1619 28.2368 9.08446 28.1708 8.7746C28.0766 8.33329 27.761 7.76756 27.4337 7.47648C27.1228 7.19949 15.283 0.356763 14.8873 0.230003C14.6094 0.136106 13.7898 0.0961998 13.5331 0.164275H13.5284Z" fill="#99918D"/>
<path d="M12.2139 4.24447C11.6863 4.5379 11.26 4.80316 11.26 4.83602C11.26 4.86419 15.5018 7.32898 20.688 10.3079C26.2558 13.5027 30.156 15.7797 30.2102 15.8571C30.3327 16.0402 30.2667 16.1177 29.7321 16.4323L29.2775 16.6975V17.8313C29.2775 18.4557 29.294 18.9534 29.3223 18.9417C30.1702 18.4604 31.2913 17.8032 31.4232 17.6975C31.5221 17.6248 31.7011 17.4205 31.8235 17.2445C32.4335 16.3266 32.3181 15.0379 31.5574 14.3595C31.3525 14.1764 21.4582 8.444 13.3326 3.80785L13.1654 3.70926L12.2115 4.24447H12.2139Z" fill="#FA5300"/>
<path d="M54.1324 9.06322C50.6937 9.49514 48.143 11.8825 47.6107 15.1712C47.5048 15.812 47.5048 17.0726 47.6107 17.7135C48.1312 20.9247 50.4559 23.1923 53.7956 23.7487C54.5116 23.8637 55.9318 23.8637 56.6242 23.744C56.9116 23.6947 57.3685 23.5937 57.6275 23.5163C60.0228 22.8355 61.9141 21.0397 62.6301 18.7557C62.908 17.8778 62.9621 17.4294 62.9292 16.19C62.908 15.1994 62.8844 14.9904 62.762 14.5327C62.0012 11.7299 59.8886 9.79092 56.928 9.1712C56.2851 9.0374 54.7918 8.97871 54.1324 9.06087V9.06322ZM56.3958 11.4412C58.148 11.866 59.5188 13.1876 60.0016 14.9247C60.4797 16.6266 60.1123 18.4951 59.0525 19.805C57.644 21.5515 55.237 22.1266 53.1173 21.2252C51.6193 20.589 50.5171 19.2346 50.1567 17.6055C50.0178 16.9482 50.0225 15.8144 50.1779 15.19C50.6985 13.0726 52.2246 11.6735 54.3938 11.3308C54.8601 11.2581 55.8635 11.3144 56.3958 11.4412Z" fill="#99918D"/>
<path d="M34.2331 9.25756C34.1224 9.33502 34.106 9.39605 34.106 9.68948C34.106 10.0111 34.2732 10.4477 36.7415 16.6871C38.3006 20.6284 39.4194 23.3914 39.4924 23.4688C39.6148 23.6026 39.6266 23.6026 40.8725 23.6026C42.1185 23.6026 42.1326 23.6026 42.2433 23.4806C42.3045 23.4078 42.3822 23.3045 42.4152 23.2435C42.4435 23.1824 43.6352 20.1425 45.0554 16.4876C46.6523 12.3867 47.6391 9.77164 47.6391 9.65427C47.6391 9.29512 47.5661 9.27399 46.3414 9.29512C45.3216 9.31155 45.2486 9.31624 45.1379 9.42892C45.0601 9.50638 44.3512 11.4242 43.0912 14.9336C42.0313 17.8961 41.1269 20.3726 41.0892 20.4383C40.9997 20.5768 40.8608 20.5979 40.7736 20.4876C40.7406 20.45 39.808 17.9547 38.7104 14.943C37.229 10.8961 36.6755 9.443 36.5742 9.33737C36.4353 9.19887 36.4188 9.19887 35.3919 9.18244C34.5111 9.1707 34.3391 9.18244 34.2331 9.25521V9.25756Z" fill="#99918D"/>
<path d="M72.3667 9.30253C72.2513 9.38 71.5353 10.3143 70.4542 11.8002C69.3402 13.3424 68.6972 14.1828 68.6242 14.1946C68.5677 14.1992 68.4805 14.1781 68.4311 14.1382C68.3816 14.0983 67.6209 13.0725 66.7447 11.8542C65.8686 10.6382 65.0702 9.56075 64.9642 9.45981L64.7758 9.28375H63.65C62.6231 9.28375 62.5124 9.29549 62.43 9.38234C62.291 9.53727 62.3146 9.76967 62.4959 9.99502C62.828 10.4199 66.8931 16.103 66.9496 16.2251C66.9944 16.3143 66.9873 16.3917 66.9285 16.5115C66.8837 16.6007 65.7579 18.1147 64.4225 19.8777C62.0366 23.0396 62.0037 23.0842 62.0037 23.3377V23.5983H64.4319L66.2666 21.1171C67.277 19.7579 68.1367 18.6077 68.1861 18.5678C68.2309 18.5302 68.3251 18.5115 68.3911 18.5349C68.4805 18.5561 69.067 19.326 70.2376 20.9551C71.3139 22.441 72.0346 23.3917 72.1453 23.4692C72.329 23.5913 72.3785 23.596 73.5584 23.596C74.8515 23.596 74.9221 23.5842 74.9221 23.3518C74.9221 23.1969 75.0281 23.3518 72.4091 19.7251C70.1857 16.6453 70.0845 16.5021 70.0845 16.265C70.0845 16.0279 70.174 15.9011 72.2984 12.9927C73.5137 11.3284 74.55 9.88 74.6065 9.76967C74.729 9.52554 74.663 9.30488 74.4511 9.22272C74.3686 9.18986 73.9141 9.16638 73.4312 9.16638C72.6093 9.16638 72.5433 9.17108 72.3667 9.29314V9.30253Z" fill="#99918D"/>
<path d="M86.7546 9.23001C86.4438 9.35677 86.4602 8.93188 86.472 16.4319L86.4885 23.3145L86.6228 23.4577L86.757 23.6009H91.199C93.6437 23.6009 95.6692 23.5798 95.7022 23.5563C95.8529 23.4577 95.8906 23.2464 95.8906 22.4953C95.8906 22.0633 95.8623 21.6666 95.8341 21.6056C95.6833 21.3356 95.6668 21.3356 92.3507 21.3356C89.4278 21.3356 89.2441 21.3309 89.1617 21.237C89.0793 21.1432 89.0675 20.6244 89.0557 15.3216L89.0392 9.507L88.8838 9.35677L88.733 9.20184L87.8004 9.1901C87.2893 9.18541 86.8182 9.20184 86.7523 9.22766L86.7546 9.23001Z" fill="#99918D"/>
<path d="M113.87 9.25795C113.771 9.30255 113.51 9.51147 113.289 9.72743C112.523 10.4856 111.508 11.0326 110.366 11.3026C110.137 11.3589 109.855 11.4457 109.744 11.5068C109.421 11.6617 109.367 11.8284 109.367 12.6007C109.367 13.373 109.424 13.5349 109.69 13.6453C109.996 13.772 110.983 13.5467 111.876 13.1429C112.342 12.9387 112.375 12.927 112.502 13.0091C112.58 13.0584 112.653 13.1758 112.669 13.2744C112.686 13.373 112.697 15.1641 112.686 17.2486C112.669 20.9575 112.669 21.0467 112.559 21.1687C112.342 21.4129 112.158 21.4457 111.006 21.4457C109.925 21.4457 109.918 21.4457 109.786 21.5842C109.652 21.711 109.647 21.7439 109.647 22.4974V23.2814L109.808 23.441L109.968 23.6007H113.823C117.413 23.6007 117.684 23.596 117.794 23.5021C117.91 23.4129 117.917 23.3683 117.9 22.5232C117.889 21.9379 117.837 21.621 117.745 21.5725C117.651 21.5232 117.29 21.4997 116.569 21.4997H115.526L115.349 21.3401L115.166 21.1805L115.138 15.3425L115.109 9.50443L114.959 9.35419C114.824 9.22039 114.754 9.19926 114.431 9.18753C114.181 9.17579 113.993 9.19926 113.87 9.25325V9.25795Z" fill="#FA5300"/>
<path d="M98.2412 9.31256C97.9963 9.47923 97.9916 9.54496 98.0081 12.9112L98.0246 16.1224L98.18 16.322C98.4909 16.7257 98.425 16.714 101.02 16.7539C103.062 16.775 103.39 16.7914 103.656 16.8806C104.544 17.1741 105.043 17.6318 105.276 18.3736C105.399 18.7609 105.415 19.4346 105.321 19.7938C105.015 20.9112 103.929 21.667 102.62 21.667C101.421 21.667 100.441 21.0708 99.9417 20.0356C99.6308 19.3994 99.6261 19.3994 98.4885 19.3994C97.351 19.3994 97.3345 19.4158 97.3345 19.8806C97.3345 20.1295 97.3792 20.2844 97.5724 20.6928C97.9115 21.4065 98.1541 21.7656 98.6416 22.2727C99.6073 23.2797 100.787 23.7867 102.325 23.8595C104.737 23.9698 106.701 22.991 107.54 21.2562C107.895 20.5262 108.006 20.0074 107.999 19.1224C107.994 17.275 107.184 15.9323 105.63 15.2022C104.742 14.7867 103.927 14.6506 102.076 14.6107C101.282 14.5943 100.566 14.5543 100.483 14.5215C100.206 14.4158 100.161 14.2116 100.161 13.0731C100.161 11.9346 100.198 11.7515 100.443 11.5802C100.559 11.5027 100.877 11.491 103.404 11.491C106.31 11.491 106.593 11.4698 106.704 11.2703C106.732 11.214 106.76 10.8055 106.76 10.3642C106.76 9.58486 106.755 9.56374 106.616 9.39707L106.473 9.22571H102.412C98.9455 9.22571 98.3354 9.23745 98.2412 9.30787V9.31256Z" fill="#FA5300"/>
<path d="M76.6556 9.42521C76.2905 9.58483 76.307 9.18812 76.3235 16.5778L76.34 23.2656L76.4554 23.4205L76.5708 23.5754L80.603 23.5919L84.6351 23.6036L84.7128 23.4111C84.8118 23.1787 84.8235 22.106 84.734 21.8407C84.6116 21.5027 84.6281 21.5027 81.717 21.5027C80.0024 21.5027 79.0391 21.4815 78.9661 21.4463C78.8672 21.39 78.8601 21.3078 78.8601 19.5402C78.8601 17.7726 78.8601 17.6928 78.9826 17.6107C79.0933 17.5332 79.4253 17.5214 81.5121 17.5214H83.9144L84.0487 17.383C84.1829 17.2562 84.1876 17.2233 84.1876 16.5261C84.1876 16.1271 84.1594 15.7515 84.1311 15.6905C83.9874 15.4299 83.9026 15.4205 81.4132 15.4205C79.9105 15.4205 79.0391 15.3994 78.9684 15.3642C78.8695 15.3078 78.8624 15.2257 78.8624 13.4581C78.8624 11.6905 78.8624 11.6107 78.9849 11.5285C79.0956 11.451 79.4513 11.4393 81.7311 11.4393C84.2536 11.4393 84.3596 11.4346 84.4608 11.3337C84.6116 11.1834 84.6445 10.9416 84.621 10.2562C84.6045 9.70455 84.5998 9.66464 84.4491 9.52145L84.2983 9.36652L80.5653 9.35478C77.4258 9.34305 76.811 9.35478 76.6556 9.42051V9.42521Z" fill="#99918D"/>
<path d="M27.0617 18.815C27.0617 22.2633 27.057 22.4464 26.951 22.7845C26.8167 23.2211 26.4846 23.6976 26.1361 23.9511C25.6156 24.322 15.4716 30.1319 15.2761 30.1647C14.9817 30.214 14.7108 30.1366 14.4894 29.9441C14.2445 29.7281 14.1409 29.491 14.1409 29.16C14.1409 29.0215 14.1244 28.9112 14.1079 28.9112C14.0349 28.9112 11.2581 30.5309 11.2581 30.5685C11.2581 30.5896 11.6749 30.8502 12.1907 31.1436C13.2671 31.7563 13.6109 31.8666 14.2539 31.8244C14.4824 31.8079 14.798 31.7469 14.9464 31.6906C15.1018 31.6295 17.9022 30.0427 21.1806 28.1647C25.4224 25.7281 27.2265 24.66 27.4361 24.4723C27.8083 24.1295 28.0956 23.5662 28.1733 23.0239C28.2016 22.8032 28.2299 21.16 28.2299 19.2328V15.822L27.6976 15.5122C27.4032 15.3408 27.1441 15.2023 27.1158 15.2023C27.0876 15.2023 27.0664 16.7892 27.0664 18.8173L27.0617 18.815Z" fill="#99918D"/>
<path d="M16.1615 24.2722C10.7586 27.3779 6.26242 29.9553 6.16821 30.0046C6.00098 30.0821 5.97979 30.0821 5.88087 29.9882C5.78195 29.906 5.76546 29.8051 5.75368 29.2464L5.7372 28.6056L4.82101 28.0703C4.31699 27.7722 3.87185 27.5351 3.83888 27.5281C3.78236 27.5281 3.76587 27.798 3.76587 28.6995C3.76587 30.3919 3.88128 30.8286 4.49835 31.4084C4.92464 31.8168 5.29677 31.9671 5.93033 31.9952C6.3472 32.0117 6.51914 31.9952 6.74524 31.9131C6.90068 31.8567 11.3097 29.3544 16.5454 26.3403L26.0581 20.8685L26.0629 19.7464C26.0629 19.1337 26.0464 18.629 26.0181 18.629C25.9969 18.629 21.5596 21.1666 16.1615 24.2722Z" fill="#FA5300"/>
</g>
<defs>
<clipPath id="clip0_5041_323">
<rect width="117.903" height="32" fill="white"/>
</clipPath>
</defs>
</svg>
